<?xml version="1.0" encoding="utf-8"?>
<!-- Generator: Adobe Illustrator 24.0.2, SVG Export Plug-In . SVG Version: 6.00 Build 0)  -->
<svg version="1.1" id="Livello_1" xmlns="http://www.w3.org/2000/svg" xmlns:xlink="http://www.w3.org/1999/xlink" x="0px" y="0px"
	 viewBox="0 0 982 965" style="enable-background:new 0 0 982 965;" xml:space="preserve">
<style type="text/css">
	.st0{display:none;}
	.st1{display:inline;fill:#FFFFFF;}
	.st2{display:inline;fill:#464646;}
	.st3{display:inline;fill:#4D4D4D;}
	.st4{display:inline;fill:#5B5B5B;}
	.st5{display:inline;fill:#FBB03B;}
	.st6{display:inline;fill:#F7931E;}
	.st7{display:inline;fill:#1F1F1F;}
	.st8{display:inline;}
	.st9{fill:none;stroke:#333333;stroke-width:9;stroke-miterlimit:10;}
	.st10{fill:#1A1A1A;}
	.st11{display:inline;fill:#1A1A1A;}
	.st12{display:inline;fill:none;stroke:#1A1A1A;stroke-width:9;stroke-miterlimit:10;}
	.st13{fill:none;stroke:#4D4D4D;stroke-width:9;stroke-miterlimit:10;}
	.st14{fill:#666666;}
	.st15{display:inline;fill:#CCCCCC;stroke:#1A1A1A;stroke-width:9;stroke-miterlimit:10;}
	.st16{fill:#CCCCCC;stroke:#1A1A1A;stroke-width:9;stroke-miterlimit:10;}
</style>
<g class="st0">
	
		<image style="display:inline;overflow:visible;" width="1039" height="1274" xlink:href="CF66D2A2.jpg"  transform="matrix(1.0038 0 0 1.0038 -10 -196)">
	</image>
	<path class="st1" d="M690.8,109.5c0,0,32.8,7,36.5,49c3.6,42,12.8,68,41,111s166-4,206.1-80c40.1-76,62-269-30.1-309
		s-241.7-51-283.6,28C618.7-12.5,654.3,60.5,690.8,109.5z"/>
</g>
<g class="st0">
	<path class="st2" d="M680.8,602c-18.5,95.9-76,177.9-155.4,228.9c-23.7,28-61.8,52.7-107.9,67.1c-65.7,20.5-129.8,14.5-166-11.7
		c5.9-5,11.3-9.5,16.1-13.4c27.7-4.2,56.9-13.2,85.7-27.3c24.7-12,46.7-26.6,65.3-42.6c37.8-2,76.5-11.8,113.7-29.9
		C608.5,736,661.1,671.7,680.8,602z"/>
	<path class="st3" d="M687.2,534.8v0.1c0,22.9-2.2,45.4-6.4,67.1c-19.7,69.7-72.3,134-148.6,171.2c-37.2,18.1-76,27.8-113.7,29.9
		c-18.6,16-40.6,30.6-65.3,42.6c-28.8,14-58,23.1-85.7,27.3c-4.8,3.9-10.2,8.3-16.1,13.4c-0.2-0.2-0.5-0.3-0.7-0.5
		c-27.9,9.8-40.3,17.1-52.7,28.2c-19,17-31,17-40,15s-18-28-33-58c-10.9-21.9-15.8-49.1-22.1-72.7c-2.3-8.8-4.8-17-7.9-24.3
		c-11.1-26-15.2-39.7-15.8-47.4c-10.5-23.1-17.2-48.3-19.3-74.8c-0.5-6-0.7-12.2-0.7-18.3c0-82.1,43.8-154,109.2-193.5
		c30.8-33.6,71.5-57.9,117.6-68.1c29.5-36.6,70.2-63.9,116.9-76.5c18.9-5.1,38.7-7.8,59.2-7.8c91.3,0,169.9,54.1,205.6,132
		c9,25.9,15.1,53.3,17.8,81.6C686.7,512.1,687.2,523.4,687.2,534.8z"/>
	<circle class="st4" cx="503" cy="263" r="215"/>
	<path class="st5" d="M670.2,281c0,0,6.1-4.3,15.6-6.1c9.5-1.7,26.8-4.3,40.6-7.8c13.8-3.5,32.9-8.6,38.1-10.4s17.3-4.3,17.3-4.3
		s-32-25.1-72.6-11.2c-40.6,13.8-57.1,28.5-57.1,28.5L670.2,281z"/>
	<path class="st6" d="M695.2,185c0,0,23.4,6.9,32,18.2c8.6,11.2,27.7,17.3,35.5,25.1c7.8,7.8,14.7,12.1,19,24.2c0,0-24.2-6.9-51-4.3
		c-26.8,2.6-40.6,4.3-53.6,10.4c-13,6.1-25.1,11.2-25.1,11.2s0.9-9.5,7.8-15.6c6.9-6.1,27.7-13.8,27.7-13.8l13.8-5.2l-13-12.1
		c0,0,5.2-2.6,6.9-8.6C697,208.4,692.6,189.3,695.2,185z"/>
	<ellipse class="st7" cx="601" cy="218.5" rx="28" ry="22.5"/>
	<path class="st4" d="M324,617.9c-2,0.8-3.9,1.7-5.6,3c-11.1,8-55,38.9-91.3,57.1c-42,21-54,29-41,47s116,42,199,12s192-104,204-160
		s29-119.3,6-119.6C572,457,493,499,475,519C457.5,538.5,363.9,602.7,324,617.9z"/>
</g>
<g class="st0">
	<g class="st8">
		<path d="M760.7,548.5c0,153.3-124.2,277.5-277.5,277.5S205.7,701.8,205.7,548.5c0-94,46.8-177.1,118.3-227.3
			c-21.3-31-33.8-68.7-33.8-109.2c0-106.6,86.4-193,193-193s193,86.4,193,193c0,40.5-12.5,78.1-33.8,109.2
			C713.9,371.4,760.7,454.5,760.7,548.5z"/>
		<path class="st9" d="M760.7,548.5c0,153.3-124.2,277.5-277.5,277.5S205.7,701.8,205.7,548.5c0-94,46.8-177.1,118.3-227.3
			c-21.3-31-33.8-68.7-33.8-109.2c0-106.6,86.4-193,193-193s193,86.4,193,193c0,40.5-12.5,78.1-33.8,109.2
			C713.9,371.4,760.7,454.5,760.7,548.5z"/>
		<g>
			<path class="st9" d="M287.7,500.5c0,79.2-15.3,149.8-39.3,195.9c-27-42.8-42.7-93.5-42.7-147.9c0-68.7,25-131.6,66.3-180
				C282,406.8,287.7,452.1,287.7,500.5z"/>
			<path class="st9" d="M760.7,548.5c0,54.4-15.6,105.1-42.7,147.9c-24-46.1-39.3-116.7-39.3-195.9c0-48.4,5.7-93.7,15.7-132
				C735.7,416.9,760.7,479.8,760.7,548.5z"/>
		</g>
		<path class="st10" d="M482.7,307c0,0-32-56-33-75s15-34,34-34s33,16,33,34S482.7,307,482.7,307z"/>
		<g>
			<circle class="st10" cx="407.2" cy="129.5" r="33.5"/>
			<circle class="st10" cx="559.2" cy="129.5" r="33.5"/>
		</g>
	</g>
	<path class="st11" d="M797.8,659.7c0,158.7-137.9,287.3-308,287.3s-308-128.6-308-287.3c0-38.7,9.8-134,36.2-235.8
		c29.7,171.4,39,228.3,39,228.3l63-92.3l40,92.3l54-115.7l60,125l64-127.8l54,118.5l47-122.2l29,97.9l79.5-212
		C780.8,520.8,797.8,620,797.8,659.7z"/>
</g>
<g class="st0">
	<g class="st8">
		<path class="st0" d="M760.7,548.5c0,153.3-124.2,277.5-277.5,277.5S205.7,701.8,205.7,548.5c0-94,46.8-177.1,118.3-227.3
			c-21.3-31-33.8-68.7-33.8-109.2c0-106.6,86.4-193,193-193s193,86.4,193,193c0,40.5-12.5,78.1-33.8,109.2
			C713.9,371.4,760.7,454.5,760.7,548.5z"/>
		<path class="st9" d="M760.7,548.5c0,153.3-124.2,277.5-277.5,277.5S205.7,701.8,205.7,548.5c0-94,46.8-177.1,118.3-227.3
			c-21.3-31-33.8-68.7-33.8-109.2c0-106.6,86.4-193,193-193s193,86.4,193,193c0,40.5-12.5,78.1-33.8,109.2
			C713.9,371.4,760.7,454.5,760.7,548.5z"/>
		<g>
			<path class="st9" d="M287.7,500.5c0,79.2-15.3,149.8-39.3,195.9c-27-42.8-42.7-93.5-42.7-147.9c0-68.7,25-131.6,66.3-180
				C282,406.8,287.7,452.1,287.7,500.5z"/>
			<path class="st9" d="M760.7,548.5c0,54.4-15.6,105.1-42.7,147.9c-24-46.1-39.3-116.7-39.3-195.9c0-48.4,5.7-93.7,15.7-132
				C735.7,416.9,760.7,479.8,760.7,548.5z"/>
		</g>
		<path class="st10" d="M482.7,307c0,0-32-56-33-75s15-34,34-34s33,16,33,34S482.7,307,482.7,307z"/>
		<g>
			<circle class="st10" cx="407.2" cy="129.5" r="33.5"/>
			<circle class="st10" cx="559.2" cy="129.5" r="33.5"/>
		</g>
	</g>
	<path class="st11" d="M797.8,659.7c0,158.7-137.9,287.3-308,287.3s-308-128.6-308-287.3c0-38.7,9.8-134,36.2-235.8
		c29.7,171.4,39,228.3,39,228.3l63-92.3l40,92.3l54-115.7l60,125l64-127.8l54,118.5l47-122.2l29,97.9l79.5-212
		C780.8,520.8,797.8,620,797.8,659.7z"/>
</g>
<g class="st0">
	<g class="st8">
		<path class="st0" d="M797.8,659.7c0,158.7-137.9,287.3-308,287.3s-308-128.6-308-287.3c0-38.7,9.8-134,36.2-235.8
			c1.7,9.8,3.3,19.2,4.9,28.3c19.7-53.3,55.4-98.9,101.2-131.1c-21.3-31-33.8-68.7-33.8-109.2c0-106.6,86.4-193,193-193
			s193,86.4,193,193c0,40.5-12.5,78.1-33.8,109.2c42.2,29.6,75.8,70.6,96.2,118.6l8.9-23.8C780.8,520.8,797.8,620,797.8,659.7z"/>
		<path class="st9" d="M738.6,439.8l-54,143.9L668,628L639,530l-47,122.2l-54-118.5l-64,127.8l-60-125l-54,115.7l-40-92.3l-47.1,69
			L257,652.2c0,0-8.3-50.6-34.2-200c0,0,0,0.1-0.1,0.1c0-0.1,0-0.1,0.1-0.2c0-0.1,0.1-0.3,0.2-0.4c0.4-1.1,0.8-2.2,1.2-3.3
			c0.5-1.4,1.1-2.8,1.7-4.2c0.4-1,0.8-1.9,1.2-2.9c0.2-0.5,0.4-1.1,0.7-1.6c0.8-1.9,1.7-3.9,2.5-5.8c0.4-0.8,0.7-1.6,1.1-2.4
			c0.1-0.3,0.3-0.6,0.5-1c0.3-0.6,0.6-1.2,0.9-1.8c0.5-1.1,1-2.1,1.6-3.2c0.6-1.1,1.1-2.3,1.7-3.4c0.1-0.2,0.2-0.4,0.3-0.5
			c0.6-1.1,1.2-2.3,1.8-3.4c0.1-0.2,0.2-0.3,0.3-0.5c0.6-1,1.1-2.1,1.7-3.1c0.7-1.2,1.3-2.4,2-3.6c1.2-2.1,2.5-4.3,3.8-6.4
			c0.3-0.5,0.5-0.9,0.8-1.4c0.6-1,1.2-1.9,1.8-2.8c1.5-2.3,2.9-4.6,4.5-6.9c0.8-1.1,1.5-2.3,2.3-3.4l0,0c1.6-2.2,3.1-4.5,4.8-6.6
			c0.8-1.1,1.6-2.2,2.4-3.2c0.1-0.1,0.2-0.3,0.3-0.4c1.6-2.1,3.2-4.1,4.8-6.1c0.9-1.1,1.7-2.1,2.6-3.2c0.6-0.8,1.3-1.6,2-2.3v0
			c15.3-17.9,32.7-33.8,52-47.3c-21.3-31-33.8-68.7-33.8-109.2c0-106.6,86.4-193,193-193s193,86.4,193,193
			c0,40.5-12.5,78.1-33.8,109.2c19.3,13.5,36.8,29.4,52,47.3v0c0.7,0.8,1.3,1.6,2,2.3c0.9,1.1,1.7,2.1,2.6,3.2c1.6,2,3.2,4,4.8,6.1
			c0.1,0.1,0.2,0.2,0.3,0.4c0.8,1.1,1.6,2.2,2.4,3.2c1.6,2.2,3.2,4.4,4.8,6.6l0,0c0.8,1.1,1.5,2.2,2.3,3.4c1.5,2.3,3,4.6,4.5,6.9
			c0.6,0.9,1.2,1.9,1.8,2.8c0.3,0.5,0.6,0.9,0.8,1.4c1.3,2.1,2.5,4.2,3.8,6.4c0.7,1.2,1.3,2.4,2,3.6c0.6,1,1.1,2,1.7,3.1
			c0.1,0.2,0.2,0.3,0.3,0.5c0.6,1.1,1.2,2.3,1.8,3.4c0.1,0.2,0.2,0.4,0.3,0.5c0.6,1.1,1.1,2.3,1.7,3.4c0.5,1.1,1,2.1,1.6,3.2
			c0.3,0.6,0.6,1.2,0.9,1.8c0.2,0.3,0.3,0.6,0.4,1c0.4,0.8,0.7,1.6,1.1,2.4C736.9,436,737.8,437.9,738.6,439.8z"/>
		<g>
			<path class="st9" d="M287.7,500.5c0,46.9-5.4,90.8-14.8,128.4L257,652.2c0,0-8.3-50.6-34.2-200c0,0,0,0,0,0
				c0-0.1,0.1-0.3,0.2-0.4c0.4-1.1,0.8-2.2,1.2-3.3c0.5-1.4,1.1-2.8,1.7-4.2c0.4-1,0.8-1.9,1.2-2.9c0.2-0.5,0.4-1.1,0.7-1.6
				c0.8-1.9,1.7-3.9,2.5-5.8c0.4-0.8,0.7-1.6,1.1-2.4c0.1-0.3,0.3-0.6,0.5-1c0.3-0.6,0.6-1.2,0.9-1.8c0.5-1.1,1-2.1,1.6-3.2
				c0.6-1.1,1.1-2.3,1.7-3.4c0.1-0.2,0.2-0.4,0.3-0.5c0.6-1.1,1.2-2.3,1.8-3.4c0.1-0.2,0.2-0.3,0.3-0.5c0.6-1,1.1-2.1,1.7-3.1
				c0.7-1.2,1.3-2.4,2-3.6c1.2-2.1,2.5-4.3,3.8-6.4c0.3-0.5,0.5-0.9,0.8-1.4c0.6-1,1.2-1.9,1.8-2.8c1.4-2.3,2.9-4.6,4.5-6.9
				c0.8-1.1,1.5-2.3,2.3-3.4l0,0c1.5-2.2,3.1-4.5,4.8-6.6c0.8-1.1,1.6-2.2,2.4-3.2c0.1-0.1,0.2-0.3,0.3-0.4c1.6-2.1,3.2-4.1,4.8-6.1
				c0.9-1.1,1.7-2.1,2.6-3.2c0.6-0.8,1.3-1.6,2-2.3C282,406.9,287.7,452.1,287.7,500.5z"/>
			<path class="st9" d="M736.1,434.1c0.9,1.9,1.7,3.8,2.5,5.7l-54,143.9c-3.8-26-5.9-54-5.9-83.2c0-48.4,5.7-93.6,15.7-132
				c0.7,0.8,1.3,1.6,2,2.3c0.9,1.1,1.7,2.1,2.6,3.2c1.6,2,3.2,4,4.8,6.1c0.1,0.1,0.2,0.2,0.3,0.4c0.8,1.1,1.6,2.2,2.4,3.2
				c1.6,2.2,3.2,4.4,4.8,6.6l0,0c0.8,1.1,1.5,2.2,2.3,3.4c1.5,2.3,3,4.5,4.5,6.9c0.6,0.9,1.2,1.9,1.8,2.8c0.3,0.5,0.6,0.9,0.8,1.4
				c1.3,2.1,2.5,4.2,3.8,6.4c0.7,1.2,1.3,2.4,2,3.6c0.6,1,1.1,2,1.7,3.1c0.1,0.2,0.2,0.3,0.3,0.5c0.6,1.1,1.2,2.3,1.8,3.4
				c0.1,0.2,0.2,0.4,0.3,0.5c0.6,1.1,1.1,2.3,1.7,3.4c0.5,1.1,1,2.1,1.6,3.2c0.3,0.6,0.6,1.2,0.9,1.8c0.2,0.3,0.3,0.6,0.4,1
				C735.4,432.5,735.7,433.3,736.1,434.1z"/>
		</g>
		<path class="st10" d="M482.7,307c0,0-32-56-33-75s15-34,34-34s33,16,33,34S482.7,307,482.7,307z"/>
		<g>
			<circle class="st10" cx="407.2" cy="129.5" r="33.5"/>
			<circle class="st10" cx="559.2" cy="129.5" r="33.5"/>
		</g>
	</g>
	<path class="st12" d="M797.8,659.7c0,158.7-137.9,287.3-308,287.3s-308-128.6-308-287.3c0-38.7,9.8-134,36.2-235.8
		c29.7,171.4,39,228.3,39,228.3l63-92.3l40,92.3l54-115.7l60,125l64-127.8l54,118.5l47-122.2l29,97.9l79.5-212
		C780.8,520.8,797.8,620,797.8,659.7z"/>
</g>
<g class="st0">
	<g class="st8">
		<path d="M738.6,439.8L668,628L639,530l-47,122.2l-54-118.5l-64,127.8l-60-125l-54,115.7l-40-92.3l-63,92.3c0,0-8.3-50.6-34.2-200
			c19.7-53.3,55.4-98.9,101.2-131.1c-21.3-31-33.8-68.7-33.8-109.2c0-106.6,86.4-193,193-193s193,86.4,193,193
			c0,40.5-12.5,78.1-33.8,109.2C684.6,350.8,718.1,391.8,738.6,439.8z"/>
		<path class="st9" d="M738.6,439.8l-54,143.9L668,628L639,530l-47,122.2l-54-118.5l-64,127.8l-60-125l-54,115.7l-40-92.3l-47.1,69
			L257,652.2c0,0-8.3-50.6-34.2-200c0,0,0,0.1-0.1,0.1c0-0.1,0-0.1,0.1-0.2c0-0.1,0.1-0.3,0.2-0.4c0.4-1.1,0.8-2.2,1.2-3.3
			c0.5-1.4,1.1-2.8,1.7-4.2c0.4-1,0.8-1.9,1.2-2.9c0.2-0.5,0.4-1.1,0.7-1.6c0.8-1.9,1.7-3.9,2.5-5.8c0.4-0.8,0.7-1.6,1.1-2.4
			c0.1-0.3,0.3-0.6,0.5-1c0.3-0.6,0.6-1.2,0.9-1.8c0.5-1.1,1-2.1,1.6-3.2c0.6-1.1,1.1-2.3,1.7-3.4c0.1-0.2,0.2-0.4,0.3-0.5
			c0.6-1.1,1.2-2.3,1.8-3.4c0.1-0.2,0.2-0.3,0.3-0.5c0.6-1,1.1-2.1,1.7-3.1c0.7-1.2,1.3-2.4,2-3.6c1.2-2.1,2.5-4.3,3.8-6.4
			c0.3-0.5,0.5-0.9,0.8-1.4c0.6-1,1.2-1.9,1.8-2.8c1.5-2.3,2.9-4.6,4.5-6.9c0.8-1.1,1.5-2.3,2.3-3.4l0,0c1.6-2.2,3.1-4.5,4.8-6.6
			c0.8-1.1,1.6-2.2,2.4-3.2c0.1-0.1,0.2-0.3,0.3-0.4c1.6-2.1,3.2-4.1,4.8-6.1c0.9-1.1,1.7-2.1,2.6-3.2c0.6-0.8,1.3-1.6,2-2.3v0
			c15.3-17.9,32.7-33.8,52-47.3c-21.3-31-33.8-68.7-33.8-109.2c0-106.6,86.4-193,193-193s193,86.4,193,193
			c0,40.5-12.5,78.1-33.8,109.2c19.3,13.5,36.8,29.4,52,47.3v0c0.7,0.8,1.3,1.6,2,2.3c0.9,1.1,1.7,2.1,2.6,3.2c1.6,2,3.2,4,4.8,6.1
			c0.1,0.1,0.2,0.2,0.3,0.4c0.8,1.1,1.6,2.2,2.4,3.2c1.6,2.2,3.2,4.4,4.8,6.6l0,0c0.8,1.1,1.5,2.2,2.3,3.4c1.5,2.3,3,4.6,4.5,6.9
			c0.6,0.9,1.2,1.9,1.8,2.8c0.3,0.5,0.6,0.9,0.8,1.4c1.3,2.1,2.5,4.2,3.8,6.4c0.7,1.2,1.3,2.4,2,3.6c0.6,1,1.1,2,1.7,3.1
			c0.1,0.2,0.2,0.3,0.3,0.5c0.6,1.1,1.2,2.3,1.8,3.4c0.1,0.2,0.2,0.4,0.3,0.5c0.6,1.1,1.1,2.3,1.7,3.4c0.5,1.1,1,2.1,1.6,3.2
			c0.3,0.6,0.6,1.2,0.9,1.8c0.2,0.3,0.3,0.6,0.4,1c0.4,0.8,0.7,1.6,1.1,2.4C736.9,436,737.8,437.9,738.6,439.8z"/>
		<g>
			<path class="st13" d="M287.7,500.5c0,46.9-5.4,90.8-14.8,128.4L257,652.2c0,0-8.3-50.6-34.2-200c0,0,0,0,0,0
				c0-0.1,0.1-0.3,0.2-0.4c0.4-1.1,0.8-2.2,1.2-3.3c0.5-1.4,1.1-2.8,1.7-4.2c0.4-1,0.8-1.9,1.2-2.9c0.2-0.5,0.4-1.1,0.7-1.6
				c0.8-1.9,1.7-3.9,2.5-5.8c0.4-0.8,0.7-1.6,1.1-2.4c0.1-0.3,0.3-0.6,0.5-1c0.3-0.6,0.6-1.2,0.9-1.8c0.5-1.1,1-2.1,1.6-3.2
				c0.6-1.1,1.1-2.3,1.7-3.4c0.1-0.2,0.2-0.4,0.3-0.5c0.6-1.1,1.2-2.3,1.8-3.4c0.1-0.2,0.2-0.3,0.3-0.5c0.6-1,1.1-2.1,1.7-3.1
				c0.7-1.2,1.3-2.4,2-3.6c1.2-2.1,2.5-4.3,3.8-6.4c0.3-0.5,0.5-0.9,0.8-1.4c0.6-1,1.2-1.9,1.8-2.8c1.4-2.3,2.9-4.6,4.5-6.9
				c0.8-1.1,1.5-2.3,2.3-3.4l0,0c1.5-2.2,3.1-4.5,4.8-6.6c0.8-1.1,1.6-2.2,2.4-3.2c0.1-0.1,0.2-0.3,0.3-0.4c1.6-2.1,3.2-4.1,4.8-6.1
				c0.9-1.1,1.7-2.1,2.6-3.2c0.6-0.8,1.3-1.6,2-2.3C282,406.9,287.7,452.1,287.7,500.5z"/>
			<path class="st13" d="M736.1,434.1c0.9,1.9,1.7,3.8,2.5,5.7l-54,143.9c-3.8-26-5.9-54-5.9-83.2c0-48.4,5.7-93.6,15.7-132
				c0.7,0.8,1.3,1.6,2,2.3c0.9,1.1,1.7,2.1,2.6,3.2c1.6,2,3.2,4,4.8,6.1c0.1,0.1,0.2,0.2,0.3,0.4c0.8,1.1,1.6,2.2,2.4,3.2
				c1.6,2.2,3.2,4.4,4.8,6.6l0,0c0.8,1.1,1.5,2.2,2.3,3.4c1.5,2.3,3,4.5,4.5,6.9c0.6,0.9,1.2,1.9,1.8,2.8c0.3,0.5,0.6,0.9,0.8,1.4
				c1.3,2.1,2.5,4.2,3.8,6.4c0.7,1.2,1.3,2.4,2,3.6c0.6,1,1.1,2,1.7,3.1c0.1,0.2,0.2,0.3,0.3,0.5c0.6,1.1,1.2,2.3,1.8,3.4
				c0.1,0.2,0.2,0.4,0.3,0.5c0.6,1.1,1.1,2.3,1.7,3.4c0.5,1.1,1,2.1,1.6,3.2c0.3,0.6,0.6,1.2,0.9,1.8c0.2,0.3,0.3,0.6,0.4,1
				C735.4,432.5,735.7,433.3,736.1,434.1z"/>
		</g>
		<path class="st14" d="M482.7,307c0,0-32-56-33-75s15-34,34-34s33,16,33,34S482.7,307,482.7,307z"/>
		<g>
			<circle class="st14" cx="407.2" cy="129.5" r="33.5"/>
			<circle class="st14" cx="559.2" cy="129.5" r="33.5"/>
		</g>
	</g>
	<path class="st15" d="M797.8,659.7c0,158.7-137.9,287.3-308,287.3s-308-128.6-308-287.3c0-38.7,9.8-134,36.2-235.8
		c29.7,171.4,39,228.3,39,228.3l63-92.3l40,92.3l54-115.7l60,125l64-127.8l54,118.5l47-122.2l29,97.9l79.5-212
		C780.8,520.8,797.8,620,797.8,659.7z"/>
</g>
<g>
	<g>
		<path d="M738.6,439.8L668,628L639,530l-47,122.2l-54-118.5l-64,127.8l-60-125l-54,115.7l-40-92.3l-63,92.3c0,0-8.3-50.6-34.2-200
			c19.7-53.3,55.4-98.9,101.2-131.1c-21.3-31-33.8-68.7-33.8-109.2c0-106.6,86.4-193,193-193s193,86.4,193,193
			c0,40.5-12.5,78.1-33.8,109.2C684.6,350.8,718.1,391.8,738.6,439.8z"/>
		<path class="st9" d="M738.6,439.8l-54,143.9L668,628L639,530l-47,122.2l-54-118.5l-64,127.8l-60-125l-54,115.7l-40-92.3l-47.1,69
			L257,652.2c0,0-8.3-50.6-34.2-200c0,0,0,0.1-0.1,0.1c0-0.1,0-0.1,0.1-0.2c0-0.1,0.1-0.3,0.2-0.4c0.4-1.1,0.8-2.2,1.2-3.3
			c0.5-1.4,1.1-2.8,1.7-4.2c0.4-1,0.8-1.9,1.2-2.9c0.2-0.5,0.4-1.1,0.7-1.6c0.8-1.9,1.7-3.9,2.5-5.8c0.4-0.8,0.7-1.6,1.1-2.4
			c0.1-0.3,0.3-0.6,0.5-1c0.3-0.6,0.6-1.2,0.9-1.8c0.5-1.1,1-2.1,1.6-3.2c0.6-1.1,1.1-2.3,1.7-3.4c0.1-0.2,0.2-0.4,0.3-0.5
			c0.6-1.1,1.2-2.3,1.8-3.4c0.1-0.2,0.2-0.3,0.3-0.5c0.6-1,1.1-2.1,1.7-3.1c0.7-1.2,1.3-2.4,2-3.6c1.2-2.1,2.5-4.3,3.8-6.4
			c0.3-0.5,0.5-0.9,0.8-1.4c0.6-1,1.2-1.9,1.8-2.8c1.5-2.3,2.9-4.6,4.5-6.9c0.8-1.1,1.5-2.3,2.3-3.4l0,0c1.6-2.2,3.1-4.5,4.8-6.6
			c0.8-1.1,1.6-2.2,2.4-3.2c0.1-0.1,0.2-0.3,0.3-0.4c1.6-2.1,3.2-4.1,4.8-6.1c0.9-1.1,1.7-2.1,2.6-3.2c0.6-0.8,1.3-1.6,2-2.3v0
			c15.3-17.9,32.7-33.8,52-47.3c-21.3-31-33.8-68.7-33.8-109.2c0-106.6,86.4-193,193-193s193,86.4,193,193
			c0,40.5-12.5,78.1-33.8,109.2c19.3,13.5,36.8,29.4,52,47.3v0c0.7,0.8,1.3,1.6,2,2.3c0.9,1.1,1.7,2.1,2.6,3.2c1.6,2,3.2,4,4.8,6.1
			c0.1,0.1,0.2,0.2,0.3,0.4c0.8,1.1,1.6,2.2,2.4,3.2c1.6,2.2,3.2,4.4,4.8,6.6l0,0c0.8,1.1,1.5,2.2,2.3,3.4c1.5,2.3,3,4.6,4.5,6.9
			c0.6,0.9,1.2,1.9,1.8,2.8c0.3,0.5,0.6,0.9,0.8,1.4c1.3,2.1,2.5,4.2,3.8,6.4c0.7,1.2,1.3,2.4,2,3.6c0.6,1,1.1,2,1.7,3.1
			c0.1,0.2,0.2,0.3,0.3,0.5c0.6,1.1,1.2,2.3,1.8,3.4c0.1,0.2,0.2,0.4,0.3,0.5c0.6,1.1,1.1,2.3,1.7,3.4c0.5,1.1,1,2.1,1.6,3.2
			c0.3,0.6,0.6,1.2,0.9,1.8c0.2,0.3,0.3,0.6,0.4,1c0.4,0.8,0.7,1.6,1.1,2.4C736.9,436,737.8,437.9,738.6,439.8z"/>
		<g>
			<path class="st13" d="M287.7,500.5c0,46.9-5.4,90.8-14.8,128.4L257,652.2c0,0-8.3-50.6-34.2-200c0,0,0,0,0,0
				c0-0.1,0.1-0.3,0.2-0.4c0.4-1.1,0.8-2.2,1.2-3.3c0.5-1.4,1.1-2.8,1.7-4.2c0.4-1,0.8-1.9,1.2-2.9c0.2-0.5,0.4-1.1,0.7-1.6
				c0.8-1.9,1.7-3.9,2.5-5.8c0.4-0.8,0.7-1.6,1.1-2.4c0.1-0.3,0.3-0.6,0.5-1c0.3-0.6,0.6-1.2,0.9-1.8c0.5-1.1,1-2.1,1.6-3.2
				c0.6-1.1,1.1-2.3,1.7-3.4c0.1-0.2,0.2-0.4,0.3-0.5c0.6-1.1,1.2-2.3,1.8-3.4c0.1-0.2,0.2-0.3,0.3-0.5c0.6-1,1.1-2.1,1.7-3.1
				c0.7-1.2,1.3-2.4,2-3.6c1.2-2.1,2.5-4.3,3.8-6.4c0.3-0.5,0.5-0.9,0.8-1.4c0.6-1,1.2-1.9,1.8-2.8c1.4-2.3,2.9-4.6,4.5-6.9
				c0.8-1.1,1.5-2.3,2.3-3.4l0,0c1.5-2.2,3.1-4.5,4.8-6.6c0.8-1.1,1.6-2.2,2.4-3.2c0.1-0.1,0.2-0.3,0.3-0.4c1.6-2.1,3.2-4.1,4.8-6.1
				c0.9-1.1,1.7-2.1,2.6-3.2c0.6-0.8,1.3-1.6,2-2.3C282,406.9,287.7,452.1,287.7,500.5z"/>
			<path class="st13" d="M736.1,434.1c0.9,1.9,1.7,3.8,2.5,5.7l-54,143.9c-3.8-26-5.9-54-5.9-83.2c0-48.4,5.7-93.6,15.7-132
				c0.7,0.8,1.3,1.6,2,2.3c0.9,1.1,1.7,2.1,2.6,3.2c1.6,2,3.2,4,4.8,6.1c0.1,0.1,0.2,0.2,0.3,0.4c0.8,1.1,1.6,2.2,2.4,3.2
				c1.6,2.2,3.2,4.4,4.8,6.6l0,0c0.8,1.1,1.5,2.2,2.3,3.4c1.5,2.3,3,4.5,4.5,6.9c0.6,0.9,1.2,1.9,1.8,2.8c0.3,0.5,0.6,0.9,0.8,1.4
				c1.3,2.1,2.5,4.2,3.8,6.4c0.7,1.2,1.3,2.4,2,3.6c0.6,1,1.1,2,1.7,3.1c0.1,0.2,0.2,0.3,0.3,0.5c0.6,1.1,1.2,2.3,1.8,3.4
				c0.1,0.2,0.2,0.4,0.3,0.5c0.6,1.1,1.1,2.3,1.7,3.4c0.5,1.1,1,2.1,1.6,3.2c0.3,0.6,0.6,1.2,0.9,1.8c0.2,0.3,0.3,0.6,0.4,1
				C735.4,432.5,735.7,433.3,736.1,434.1z"/>
		</g>
		<path class="st14" d="M482.7,307c0,0-32-56-33-75s15-34,34-34s33,16,33,34S482.7,307,482.7,307z"/>
		<g>
			<circle class="st14" cx="407.2" cy="129.5" r="33.5"/>
			<circle class="st14" cx="559.2" cy="129.5" r="33.5"/>
		</g>
	</g>
	<path class="st16" d="M797.8,659.7c0,158.7-137.9,287.3-308,287.3s-308-128.6-308-287.3c0-38.7,9.8-134,36.2-235.8
		c29.7,171.4,39,228.3,39,228.3l63-92.3l40,92.3l54-115.7l60,125l64-127.8l54,118.5l47-122.2l29,97.9l79.5-212
		C780.8,520.8,797.8,620,797.8,659.7z"/>
</g>
</svg>
